<svg xmlns="http://www.w3.org/2000/svg" id="Layer_2" viewBox="0 0 436.77 198.42"><defs><style>.cls-1{fill:#004f7e}.cls-2{fill:#0083bf}.cls-3{fill:#fff}.cls-4{fill:#bccee0}.cls-5{fill:#156da3}.cls-6{fill:#231f20}.cls-7{fill:#103a60}</style></defs><g id="Layer_1-2"><path d="M224.18 57.81h1.8v-4.04h-13.32l-9 17.3-9-17.3h-13.15v4.04h1.8c1.07 0 1.41.58 1.41 1.36v24.31c0 .78-.34 1.36-1.51 1.36h-1.7v4h12.42v-4h-3.02V61.11l12.7 22.28.02.13.03-.05.03.05.02-.13 12.7-22.28v23.73h-3.02v4h12.59v-4h-1.7c-1.17 0-1.51-.58-1.51-1.36V59.17c0-.78.34-1.36 1.41-1.36ZM263.12 84.86c-.88 0-1.17-.49-1.41-1.17l-9.89-29.92h-9.65l-9.89 29.92c-.24.68-.54 1.17-1.41 1.17h-1.95v4h13.45v-4h-3.41l2.59-8.67h10.92l2.59 8.67h-3.41v4h13.45v-4h-1.95Zm-20.47-12.67 4.19-13.94h.3l4.19 13.94h-8.68ZM293.93 58.69l-19.1 25.53h12.62c2.82 0 3.6-2.87 3.8-5.02h3.51v9.65h-27.48v-4.97l19.25-25.48h-11.01c-2.63 0-3.85 1.75-4.09 5.12h-3.66v-9.75h26.17v4.92ZM301.58 57.81h-1.8v-4.04h26.02v9.11h-3.66l-1.56-4.43h-11.3v10.09h11.75v4.24h-11.75v11.45h11.55l1.37-4.48h3.65v9.11h-26.07v-4h1.7c1.17 0 1.51-.63 1.51-1.41V59.19c0-.78-.34-1.36-1.41-1.36ZM357.86 79.84V57.82h-3.22v-4.04h11.75v4.04h-1.8c-1.07 0-1.41.58-1.41 1.36v29.67h-6.92l-16.08-25.68v21.68h3.22v4h-11.84v-4h1.75c1.17 0 1.46-.58 1.46-1.36V59.18c0-.78-.29-1.36-1.41-1.36h-1.8v-4.04h10.14l16.18 26.07ZM385.35 53.18c9.79 0 16.27 6.29 16.27 18.13s-6.48 18.13-16.27 18.13-16.28-6.24-16.28-18.13 6.48-18.13 16.28-18.13Zm0 31.62c5.36 0 9.79-3.36 9.79-13.5s-4.43-13.5-9.79-13.5-9.79 3.41-9.79 13.5 4.43 13.5 9.79 13.5ZM436.77 71.02c0 11.79-6.68 17.83-16.37 17.83h-15.74v-4h1.7c1.17 0 1.51-.63 1.51-1.41V59.18c0-.78-.34-1.36-1.41-1.36h-1.8v-4.04h15.74c9.69 0 16.37 5.46 16.37 17.25Zm-17.3-12.62h-5.31v25.82h5.31c9.06 0 10.77-7.26 10.77-13.2s-1.71-12.62-10.77-12.62ZM192.17 100.38c2.02 0 4.74.35 7.15 1.03v4.9h-2.4c-.71-1.76-1.89-2.89-5-2.89-3.49 0-6.41 2.63-6.41 8.98s2.95 8.78 6.76 8.78c3.14 0 3.94-1.12 4.65-2.85h2.4v4.87c-2.44.71-5.13 1.03-7.15 1.03-6.63 0-10.93-3.59-10.93-11.92s4.3-11.92 10.93-11.92ZM219.36 100.38c6.44 0 10.71 4.14 10.71 11.92s-4.26 11.92-10.71 11.92-10.71-4.1-10.71-11.92 4.26-11.92 10.71-11.92Zm0 20.8c3.53 0 6.44-2.21 6.44-8.88s-2.92-8.88-6.44-8.88-6.44 2.24-6.44 8.88 2.92 8.88 6.44 8.88ZM240.39 103.42h-1.15v-2.66h8.33v2.66h-2.12v17.37h7.18l.93-3.17H256v6.22h-16.76v-2.63h1.12c.77 0 .96-.42.96-.93v-15.96c0-.51-.19-.9-.93-.9ZM265.62 103.42h-1.15v-2.66h8.33v2.66h-2.11v17.37h7.18l.93-3.17h2.44v6.22h-16.76v-2.63h1.12c.77 0 .96-.42.96-.93v-15.96c0-.51-.19-.9-.93-.9ZM290.92 103.42h-1.19v-2.66h17.12v5.99h-2.4l-1.03-2.92h-7.44v6.64h7.73v2.79h-7.73v7.53h7.6l.9-2.95h2.4v5.99h-17.15v-2.63h1.12c.77 0 .99-.42.99-.93v-15.96c0-.51-.22-.9-.93-.9ZM320.7 112.43c0 6.35 3.3 8.75 7.21 8.75 2.34 0 3.53-.45 4.39-.77v-5.48h-5v-2.92h9.01v10.55c-2.63 1.09-6.31 1.67-8.82 1.67-6.7 0-11.06-3.78-11.06-11.99s4.94-11.86 11.73-11.86c2.02 0 5.03.35 7.44 1.03v4.9h-2.44c-.71-1.76-2.15-2.85-5.35-2.85-3.81 0-7.12 2.24-7.12 8.98ZM347.31 103.42h-1.19v-2.66h17.12v5.99h-2.4l-1.03-2.92h-7.44v6.64h7.73v2.79h-7.73v7.53h7.6l.9-2.95h2.4v5.99h-17.15v-2.63h1.12c.77 0 .99-.42.99-.93v-15.96c0-.51-.22-.9-.93-.9Z" class="cls-3"/><path d="m11.41 152.61.68-10.14c-3.35-.34-5.01-.43-7.48.02-2.24.41-3.48 1.33-3.6 2.42-.07.64.02 2.11 1.12 3.05" class="cls-2"/><path d="M43.2 174.68h-.12c-2.23.21-4.47.31-6.66.31-20.26 0-33.07-8.52-35.39-10.19v-17.87c11.22 9.41 29.55 11.43 43.17 11.43 1.26 0 2.57-.02 3.9-.05h.56c3.29 0 4.74.81 5.38 1.48.61.65.58 1.29.57 1.32l-1.12 15.11-10.3-1.53Z" class="cls-1"/><path d="M67.17 164.25c-1.24 0-2.39.45-3.43 1.35-1.01.98-1.52 2.18-1.5 3.57.01 1.41.43 2.55 1.23 3.38.79.84 1.82 1.28 3.06 1.29 1.55-.03 2.79-.6 3.69-1.67.76-.8 1.16-1.93 1.17-3.36-.01-1.28-.38-2.37-1.09-3.24-.74-.86-1.79-1.3-3.11-1.32Zm1.88 7.59c-.37.66-1 .99-1.92 1-1.06-.01-1.81-.41-2.32-1.21-.51-.78-.77-1.71-.77-2.76 0-.43.04-.87.13-1.31.07-.42.2-.81.38-1.16.19-.35.44-.64.75-.86.3-.2.7-.3 1.19-.3 1.11.01 1.88.41 2.37 1.2.49.78.74 1.76.74 2.93 0 .97-.18 1.8-.55 2.46ZM89.89 173.05c-.45-.06-.73-.27-.84-.62-.09-.46-.14-1.29-.12-2.47v-2.76c.04-1.32.07-1.64.09-1.71.05-.12.11-.19.21-.23.16-.08.33-.15.49-.2l.05-.03s.16-.13.16-.27c0-.11-.08-.25-.29-.25-.13-.01-.3-.02-.54-.02h-.45c-.71 0-1.31.06-1.79.17-.48.13-.92.31-1.31.53-.89.58-1.34 1.28-1.36 2.09.01.45.17.75.49.9.25.08.49.05.74-.1.18-.15.31-.3.37-.43.12-.18.1-.36-.04-.49-.12-.12-.18-.32-.18-.59 0-.3.13-.55.39-.79.23-.23.61-.35 1.11-.35.09 0 .14.01.17.02.01.03.03.09.04.22.05.52.07 1.3.07 2.32v1.97c0 .61 0 1.12.02 1.53-.01.4-.06.74-.15 1.04-.03.13-.12.24-.27.32-.18.09-.39.15-.64.2-.24.07-.26.23-.26.3 0 .06.02.25.33.29.66-.03 1.22-.05 1.68-.06.53.01 1.1.03 1.73.06.27-.03.35-.15.37-.29 0-.07-.03-.23-.28-.31ZM83.88 173.06c-.39-.08-.69-.18-.89-.28-.17-.07-.26-.2-.3-.39-.06-.32-.13-.94-.21-1.85-.13-1.59-.18-2.9-.17-3.87 0-.16 0-.37.02-.63.01-.22.06-.4.13-.53.14-.24.5-.42 1.09-.52.24-.07.26-.23.26-.3 0-.07-.03-.25-.37-.25-.58.04-1.04.06-1.42.06-.24 0-.47 0-.71-.02-.2-.01-.33.02-.4.1-.05.06-.07.13-.06.22 0 .04-.02.24-.41 1.21-.43 1.03-.96 2.59-2 4.64-.01.03-.02.05-.03.06-.87-1.79-1.81-3.37-2.35-4.71-.1-.32-.18-.58-.21-.77-.04-.22-.04-.33-.04-.35.04-.15 0-.24-.04-.29-.06-.08-.16-.11-.3-.1-.05 0-.11 0-.18.01-.05 0-.11-.02-.18-.01-.24.01-.47.02-.71.02-.37 0-.84-.02-1.42-.06-.33 0-.37.17-.37.25 0 .07.03.23.26.3.58.1.94.27 1.09.52.07.13.12.31.13.53v.15c-.03.36-.08.91-.15 1.69-.08.82-.08 1.78-.26 2.86-.2 1.37-.44 1.83-.66 1.97-.25.15-.52.27-.81.36-.19.06-.24.21-.21.33.02.08.08.23.37.26.53-.03 1.02-.05 1.45-.06.55.01 1.06.03 1.57.06.29 0 .38-.13.4-.27 0-.09-.04-.21-.24-.29l-.38-.17c-.23-.1-.36-.28-.41-.55-.05-.3-.12-.83-.06-1.57.11-1.52.1-2.81.21-3.83.46 1.17 1.14 2.33 1.6 3.49.45 1.09.9 1.98 1.09 2.63.1.33.26.5.46.5.13 0 .24-.08.51-.56.17-.35.23-.64.32-.86.49-1.22.82-2.26 1.3-3.21.35-.72.5-1.39.74-1.89.02 1.07.04 2.57.05 4.47-.01.55-.02.92-.02 1.11 0 .23-.13.35-.39.41-.22.07-.25.23-.24.27-.02.09 0 .16.04.2.04.06.11.1.25.12.29-.03.7-.05 1.26-.06.5.01 1.16.03 1.99.06.29-.03.32-.21.32-.29 0-.07-.03-.24-.28-.3Z" class="cls-3"/><path d="M53.61 174.7c-3.31-.77-9.21-2.85-9.28-6.32v-.07l-.01-.07c0-.02-.07-1.34 2.47-2.42 1.11-.47 2.35-.69 3.55-.9 1.41-.25 2.85-.5 4.07-1.17l-.8 10.94ZM143.58 152.61l-.68-10.14c3.35-.34 5.01-.43 7.48.02 2.24.41 3.48 1.33 3.6 2.42.07.64-.02 2.11-1.12 3.05" class="cls-2"/><path d="M100.37 161.11s-.03-.68.57-1.33c.64-.68 2.09-1.48 5.38-1.48h.56c1.33.04 2.64.05 3.9.05 13.62 0 31.96-2.01 43.19-11.43v17.87c-2.34 1.67-15.18 10.19-35.4 10.19-2.19 0-4.44-.1-6.66-.3h-.12l-10.3 1.52-1.12-15.1Z" class="cls-1"/><path d="M100.58 163.76c1.22.67 2.66.92 4.07 1.17 1.2.21 2.44.43 3.55.9 2.54 1.08 2.47 2.4 2.47 2.45v.1c-.07 3.47-5.97 5.55-9.29 6.32l-.8-10.94Z" class="cls-2"/><path d="M78.37 197.85c-22.71-.48-33.27-8.16-34.79-9.37l.27-19c1.28.9 3.92 2.55 7.96 4.21 5.37 2.21 14.33 4.85 26.56 4.85 19.69 0 29.79-6.61 32.76-8.96.01 2.02.09 6.9.27 18.94-1.27 1.19-10.36 8.86-33.03 9.34Z" class="cls-1"/><path d="M154.97 144.79c-.18-1.61-1.79-2.81-4.41-3.29s-4.37-.38-7.76-.04l-.97.1.73 10.77c-6.79 2.66-16.93 5-31.77 5-1.26 0-2.55-.02-3.87-.05h-.58c-7.38 0-6.96 3.89-6.96 3.89l.99 13.37c-5.28 1.86-12.52 3.42-21.98 3.42-10.1 0-17.99-1.78-23.71-3.8l.96-12.99s.42-3.89-6.96-3.89h-.58c-1.32.03-2.62.05-3.87.05-14.84 0-24.98-2.34-31.77-5l.73-10.77-.97-.1c-3.39-.34-5.15-.44-7.76.04-2.63.48-4.23 1.68-4.42 3.29 0 0-.01 0-.01.02v.14c-.02.21-.02.43 0 .66v19.69s13.45 10.69 36.41 10.69c2.17 0 4.42-.1 6.75-.3h.02l-.19 13.06s10.32 9.14 35.36 9.67c25.04-.53 33.6-9.67 33.6-9.67s-.11-7.21-.19-13.05h.04c2.33.2 4.58.3 6.75.3 22.96 0 36.39-10.69 36.39-10.69v-19.7c.03-.22.03-.44.02-.64v-.15s0-.01-.01-.02ZM46.55 170.5c-.73-.65-1.21-1.13-1.22-2.14v-.15c.06-.28.28-.8 1.85-1.46 1.01-.43 2.14-.62 3.34-.84.9-.16 1.85-.33 2.77-.61l-.59 8.11s-.08-.03-.12-.04c-2.52-1.01-4.53-2.03-6.01-2.88ZM2.02 145.03c.06-.52.94-1.2 2.78-1.54 2.12-.39 3.6-.36 6.22-.11l-.55 8.15c-3.82-1.69-6.39-3.42-8.02-4.71-.42-.62-.48-1.4-.44-1.79Zm40.97 28.66c-2.2.2-4.41.3-6.57.3-18.94 0-31.29-7.58-34.38-9.7v-15.28c11.53 8.49 29.02 10.36 42.17 10.36 1.28 0 2.61-.02 3.93-.05h.53c3.58 0 4.91 1.04 4.95 1.75l-.15 2.04c-2.01.88-4.7.8-7.07 1.8-3.17 1.34-3.11 3.21-3.09 3.45v.01l-.08 5.3-.23.02Zm35.38 22.72c-12.46-.27-21.05-2.75-26.06-4.78-3.81-1.54-6.19-3.07-7.27-3.85l.23-15.67c5.06 2.97 16.02 7.89 33.11 7.89s26.57-4.64 31.34-7.66l.09 6.26.14 9.28c-2.19 1.84-11.11 8.09-31.57 8.53Zm23.33-31.1c.92.28 1.87.45 2.77.61 1.2.21 2.33.41 3.34.84 1.57.66 1.84 1.25 1.85 1.45v.15c-.04 2.36-4.14 4.17-7.36 5.07l-.59-8.12Zm51.24-1.03c-3.08 2.13-15.37 9.7-34.38 9.7-2.16 0-4.38-.1-6.57-.3l-.24-.02h-.01l-.07-5.29c0-.29.07-2.14-3.08-3.47-2.37-1-5.06-.93-7.07-1.8l-.15-2.04v-.01l.03.07-.02-.1c.08-.71 1.43-1.71 4.95-1.71h.53c1.32.03 2.64.05 3.93.05 13.14 0 30.64-1.87 42.18-10.36v15.28Zm-.43-17.46c-1.63 1.29-4.2 3.02-8.02 4.71l-.55-8.15c2.63-.25 4.1-.28 6.23.11 1.84.34 2.72 1.02 2.78 1.54.04.39-.02 1.17-.44 1.79Z" class="cls-6"/><path d="m52.23 180.91 1.55.49v4.38l1.88.6v1.03l-3.43-1.09v-5.42ZM56.1 182.1l1.57.44v5.42l-1.57-.44v-5.42ZM58.72 182.84l1.09.25 2.3 3.54v-3.01l1.24.29v5.42l-1.01-.23-2.39-3.61v3.07l-1.24-.28v-5.42ZM69.46 191.59l-2.36-1.56c-1.07-.19-1.64-.46-2.13-1.03-.53-.6-.82-1.4-.82-2.25 0-1.61 1.13-2.6 2.68-2.36 1.53.24 2.63 1.59 2.63 3.22 0 1-.33 1.65-1.12 2.2l1.67.93-.56.85Zm-2.65-6.07c-.65-.1-.97.4-.97 1.52s.32 1.73.97 1.83c.66.1.98-.41.98-1.52s-.33-1.72-.98-1.82ZM71.82 185.1v2.65c0 .94.03 1.18.19 1.44.12.2.34.34.6.36.29.02.55-.1.69-.32.16-.25.21-.58.21-1.37v-2.62l1.39.11v2.98c0 .87-.05 1.15-.28 1.53-.12.19-.29.37-.5.5-.41.27-.93.37-1.59.31-1.05-.08-1.84-.54-2.13-1.27-.19-.44-.19-.52-.19-1.51v-2.91l1.62.13ZM75.83 185.35l3.29.03v1.02h-1.67v1.02h1.63v1.04h-1.62v1.28h1.98v1.05l-3.62-.03v-5.42ZM80.15 185.36l1.12-.08 2.35 2.83v-3.01l1.27-.1v5.42l-1.03.08-2.45-2.88v3.07l-1.26.09v-5.42ZM85.99 184.87l1.69-.26c.24-.04.41-.06.5-.08.38-.05.75-.06 1.09-.02.37.05.71.2 1 .41.5.39.75.97.75 1.74 0 1.14-.54 2.16-1.47 2.73-.5.32-1.02.49-1.79.61l-1.78.28v-5.42Zm1.85 4.1c.6-.09.94-.29 1.17-.67.22-.35.34-.85.34-1.35 0-1.06-.5-1.51-1.49-1.35l-.27.04v3.37l.25-.04ZM93.34 183.56v2.65c0 .94.03 1.17.18 1.38.12.17.33.23.59.18.29-.06.54-.27.67-.53.16-.3.21-.64.21-1.44v-2.62l1.36-.31v2.98c0 .87-.05 1.17-.28 1.62-.12.23-.29.46-.49.65-.4.39-.91.65-1.55.79-1.02.23-1.8 0-2.08-.62-.18-.38-.19-.46-.19-1.45v-2.91l1.58-.36ZM97.21 182.67l1.84-.56 1.08 2.99 1.05-3.64 1.8-.54v5.42l-1.49.45v-2.73c0-.76 0-.95.08-1.44-.18.81-.26 1.18-.37 1.53l-.9 3-.65.2-.93-2.45c-.16-.44-.24-.72-.37-1.3.05.51.07.7.08.92v3.2l-1.21.37v-5.42ZM12.32 159.29l1.06.37 2.22 3.79v-3.01l1.2.42v5.42l-.97-.34-2.31-3.88v3.07l-1.19-.42v-5.42ZM17.85 161.13l1.57.42v5.42l-1.57-.42v-5.42ZM20.52 161.88l1.6.29v1.9l1.7.3v-1.9l1.59.29v5.42l-1.59-.29v-2.48l-1.7-.3v2.48l-1.61-.29v-5.42ZM26.53 162.83l1.62.17v5.42l-1.62-.17v-5.42ZM29.27 163.1l1.62.11v4.38l1.97.14v1.03l-3.59-.25v-5.42ZM114.9 163.72l1.63-.03v5.42l-1.63.03v-5.42ZM117.6 163.68l1.12-.04 2.35 2.92v-3.01l1.28-.05v5.42l-1.03.04-2.45-2.97v3.07l-1.27.05v-5.42ZM124.55 167.46l-.53 1.34-1.26.1 2.2-5.6 1.37-.11 2.05 5.25-1.73.14-.43-1.26-1.67.14Zm.88-2.63-.62 1.74 1.15-.09-.54-1.65ZM130.15 162.74v2.65c0 .94.03 1.17.18 1.39.12.17.34.25.59.2.29-.05.54-.25.68-.5.16-.3.21-.63.21-1.43v-2.62l1.38-.25v2.98c0 .87-.05 1.16-.28 1.6-.12.22-.29.44-.5.63-.4.37-.92.61-1.57.72-1.03.19-1.81-.07-2.1-.72-.18-.39-.19-.47-.19-1.46v-2.91l1.6-.29ZM136.69 162.28c-.3-.07-.49-.07-.72 0-.3.09-.49.27-.49.49 0 .17.09.25.55.52.47.28.61.38.79.52.33.27.5.64.5 1.06 0 .96-.8 1.83-2 2.18-.62.18-1.14.19-1.64-.02l.48-1.03c.28.16.62.2.94.11.36-.11.59-.39.59-.7s-.13-.46-.74-.81c-.38-.22-.52-.31-.66-.44-.25-.22-.37-.49-.37-.86 0-.86.73-1.66 1.82-1.98.48-.14.94-.15 1.37-.04l-.41.98ZM139.5 160.19v2.65c0 .94.03 1.17.18 1.36.11.15.32.19.56.1.27-.1.52-.34.65-.62.15-.32.2-.67.2-1.46v-2.62l1.31-.49v2.98c0 .87-.05 1.17-.27 1.65-.12.25-.28.49-.47.71-.38.44-.88.76-1.5.99-.98.36-1.73.24-2.01-.36-.17-.36-.18-.44-.18-1.43v-2.91l1.53-.56ZM143.23 158.79l1.76-.79 1.03 2.86 1-3.77 1.71-.77v5.42l-1.42.64v-2.73c0-.76 0-.95.07-1.45-.17.83-.25 1.21-.36 1.57l-.86 3.12-.62.28-.88-2.34c-.16-.42-.23-.69-.36-1.25.05.5.07.69.07.91v3.2l-1.16.52v-5.42Z" class="cls-3"/><path d="m77.3 160.18-58.94-35.03.03-79.85c-.14-13.99-4.74-19.3-7.48-21.21l-.52-.36v-6.55h51.4v2.43H12.83v2.87c3.15 2.46 7.86 8.52 8 22.81l-.03 78.47 56.51 33.59 56.89-33.59-.08-78.46c.14-14.32 4.87-20.39 8.03-22.85v-2.83H93.07v-2.43h51.51v6.51l-.52.36c-2.21 1.54-7.37 6.71-7.51 21.26l.08 79.84-59.32 35.03Z" class="cls-6"/><path d="m77.3 157.33-56.54-33.56V45.11c-.15-14.27-4.87-20.03-8.03-22.51v-3.05l129.51-.02v3c-3.17 2.48-7.94 8.37-8.08 22.66l.05 78.64S95.8 146.38 77.3 157.34Z" class="cls-1"/><path d="M140.71 21.07v.74c-3.74 3.23-7.94 9.87-8.08 23.38l.05 77.76c-5.41 3.18-38.27 22.48-55.37 32.61-15.92-9.45-49.56-29.41-55-32.65V45.1c-.12-10.77-2.89-18.78-8.03-23.22v-.79l126.43-.02m1.54-1.54-129.51.02v3.05c3.16 2.48 7.88 8.24 8.02 22.51v78.66l56.55 33.56c18.5-10.96 56.91-33.51 56.91-33.51l-.05-78.64c.14-14.28 4.91-20.18 8.07-22.66v-3Z" class="cls-5"/><path d="M73.55 105.09c-15.92-6.86-32.38-22.6-32.38-37.07V56.6h71.35v11.42c0 14.47-16.47 30.22-32.38 37.07l-3.29 1.42-3.29-1.42Z" class="cls-7"/><path d="M145.04 40.67H93.08V0H61.79v40.67H9.95l.01 26.84h51.83v82.06l15.47 9.19 15.82-9.3V67.51h51.96V40.67z" class="cls-6"/><path d="M65.62 150.4V3.82h23.64v146.47l2.01-1.19V1.81H63.6V149.2l2.02 1.2z" class="cls-3"/><path d="M143.25 65.73H11.78l-.04-23.27h131.51v23.27ZM13.8 63.72h127.44V44.48H13.76l.04 19.24Z" class="cls-3"/><path d="M76.21 95.98c-7.07-3.05-13.82-7.82-18.99-13.44-5.33-5.78-8.26-11.69-8.26-16.62V30.94h56.68v34.98c0 4.94-2.93 10.84-8.26 16.62-5.17 5.62-11.92 10.39-18.99 13.44l-1.09.47-1.09-.47Z" class="cls-3"/><path d="m77.3 97.54-1.49-.64c-7.2-3.1-14.07-7.96-19.33-13.68-5.5-5.97-8.52-12.11-8.52-17.3V29.93h58.69v35.99c0 5.19-3.03 11.34-8.52 17.3C92.86 88.94 86 93.8 78.8 96.9l-1.49.64Zm-.69-2.49.69.3.69-.3c6.95-2.99 13.57-7.68 18.65-13.19 5.15-5.6 7.99-11.26 7.99-15.94V31.95H49.97v33.97c0 4.68 2.84 10.34 7.99 15.94 5.08 5.52 11.7 10.2 18.65 13.19Z" class="cls-6"/><path d="m34.75 102.85 1.7 4.26-1.7 2.47-1.7-2.47 1.7-4.26zM39.09 105.98l-1.9-.39-1.11-2.74 2.7 1.22.31 1.91zM30.42 105.98l1.89-.39 1.11-2.74-2.69 1.22-.31 1.91zM34.79 88.12l3.43 3.58-3.43 9.44-3.44-9.44 3.44-3.58z" class="cls-7"/><path d="M28.25 94.26c3.69.16 5.2 5.83 5.3 6.33h2.4c.1-.5 1.61-6.17 5.3-6.33 3.64.37 2.53 4.73.77 5.81 0 0-.34-1.94-1.91-1.79-1.56.14-2.51 1.05-3.05 2.9-.09.38-.11.67-.11.99h-4.4c0-.32-.01-.61-.11-.99-.54-1.85-1.49-2.76-3.05-2.9-1.57-.14-1.91 1.79-1.91 1.79-1.77-1.08-2.88-5.44.77-5.81Z" class="cls-7"/><path d="m34.75 101.61 1.7 4.25-1.7 2.47-1.7-2.47 1.7-4.25zM39.09 104.74l-1.9-.39-1.11-2.74 2.7 1.22.31 1.91zM30.42 104.74l1.89-.39 1.11-2.74-2.69 1.22-.31 1.91zM34.79 86.41l3.43 3.57-3.43 9.45-3.44-9.45 3.44-3.57z" class="cls-3"/><path d="M28.25 93.11c3.69.16 5.2 6.38 5.3 6.88h2.38c.1-.5 1.61-6.72 5.3-6.88 3.64.37 2.53 4.73.77 5.81 0 0-.34-1.94-1.91-1.79-1.56.14-2.51 1.05-3.05 2.9-.09.38-.11.67-.11.99h-4.4c0-.32-.01-.61-.11-.99-.54-1.85-1.49-2.76-3.05-2.9-1.57-.14-1.91 1.79-1.91 1.79-1.77-1.08-2.88-5.44.77-5.81Z" class="cls-3"/><path d="m34.73 87.09 2.76 2.88-2.65 8.18-.11-11.06zM40.3 93.62s1.75-.36 2.39.58c.64.94.19 2.69.19 2.69s-.28-3.01-2.58-3.27ZM34.74 102.58v4.81l1.17-1.75-1.17-3.06zM27.38 93.6s1.28-.38 2.55.55c1.27.93 2.72 3.98 2.72 3.98s-2.43-4.16-5.28-4.53Z" class="cls-4"/><path d="m120.21 102.85 1.7 4.26-1.7 2.47-1.7-2.47 1.7-4.26zM124.54 105.98l-1.89-.39-1.11-2.74 2.69 1.22.31 1.91zM115.87 105.98l1.9-.39 1.11-2.74-2.7 1.22-.31 1.91zM120.24 88.12l3.44 3.58-3.44 9.44-3.43-9.44 3.43-3.58z" class="cls-7"/><path d="M113.7 94.26c3.69.16 5.2 5.83 5.3 6.33h2.4c.1-.5 1.61-6.17 5.3-6.33 3.64.37 2.53 4.73.77 5.81 0 0-.34-1.94-1.91-1.79-1.56.14-2.51 1.05-3.05 2.9-.09.38-.11.67-.11.99H118c0-.32-.01-.61-.11-.99-.54-1.85-1.49-2.76-3.05-2.9-1.57-.14-1.91 1.79-1.91 1.79-1.77-1.08-2.88-5.44.77-5.81Z" class="cls-7"/><path d="m120.21 101.61 1.7 4.25-1.7 2.47-1.7-2.47 1.7-4.25zM124.54 104.74l-1.89-.39-1.11-2.74 2.69 1.22.31 1.91zM115.87 104.74l1.9-.39 1.11-2.74-2.7 1.22-.31 1.91zM120.24 86.41l3.44 3.57-3.44 9.45-3.43-9.45 3.43-3.57z" class="cls-3"/><path d="M113.7 93.11c3.69.16 5.2 6.38 5.3 6.88h2.38c.1-.5 1.61-6.72 5.3-6.88 3.64.37 2.53 4.73.77 5.81 0 0-.34-1.94-1.91-1.79-1.56.14-2.51 1.05-3.05 2.9-.09.38-.11.67-.11.99h-4.4c0-.32-.01-.61-.11-.99-.54-1.85-1.49-2.76-3.05-2.9-1.57-.14-1.91 1.79-1.91 1.79-1.77-1.08-2.88-5.44.77-5.81Z" class="cls-3"/><path d="m120.18 87.09 2.77 2.88-2.66 8.18-.11-11.06zM125.75 93.62s1.75-.36 2.39.58c.64.94.19 2.69.19 2.69s-.28-3.01-2.58-3.27ZM120.2 102.58v4.81l1.17-1.75-1.17-3.06zM112.84 93.6s1.28-.38 2.55.55c1.27.93 2.72 3.98 2.72 3.98s-2.43-4.16-5.28-4.53Z" class="cls-4"/><path d="m50.78 121.6 1.71 4.26-1.71 2.47-1.7-2.47 1.7-4.26zM55.12 124.73l-1.9-.39-1.1-2.74 2.69 1.22.31 1.91zM46.45 124.73l1.89-.39 1.11-2.74-2.69 1.22-.31 1.91zM50.82 106.87l3.43 3.58-3.43 9.44-3.44-9.44 3.44-3.58z" class="cls-7"/><path d="M44.28 113.01c3.69.16 5.2 5.83 5.3 6.33h2.4c.1-.5 1.61-6.17 5.3-6.33 3.64.37 2.53 4.73.77 5.81 0 0-.34-1.94-1.91-1.79-1.56.14-2.51 1.05-3.05 2.9-.09.38-.11.67-.11.99h-4.4c0-.32-.01-.61-.11-.99-.54-1.85-1.49-2.76-3.05-2.9-1.57-.14-1.91 1.79-1.91 1.79-1.77-1.08-2.88-5.44.77-5.81Z" class="cls-7"/><path d="m50.78 120.36 1.71 4.25-1.71 2.47-1.7-2.47 1.7-4.25zM55.12 123.49l-1.9-.39-1.1-2.74 2.69 1.22.31 1.91zM46.45 123.49l1.89-.39 1.11-2.74-2.69 1.22-.31 1.91zM50.82 105.16l3.43 3.57-3.43 9.45-3.44-9.45 3.44-3.57z" class="cls-3"/><path d="M44.28 111.86c3.69.16 5.2 6.38 5.3 6.88h2.38c.1-.5 1.61-6.72 5.3-6.88 3.64.37 2.53 4.73.77 5.81 0 0-.34-1.94-1.91-1.79-1.56.14-2.51 1.05-3.05 2.9-.09.38-.11.67-.11.99h-4.4c0-.32-.01-.61-.11-.99-.54-1.85-1.49-2.76-3.05-2.9-1.57-.14-1.91 1.79-1.91 1.79-1.77-1.08-2.88-5.44.77-5.81Z" class="cls-3"/><path d="m50.76 105.84 2.76 2.88-2.65 8.18-.11-11.06zM56.33 112.37s1.75-.36 2.39.58c.64.94.19 2.69.19 2.69s-.28-3.01-2.58-3.27ZM50.78 121.33v4.81l1.16-1.75-1.16-3.06zM43.41 112.35s1.28-.38 2.55.55c1.27.93 2.72 3.98 2.72 3.98s-2.43-4.16-5.28-4.53Z" class="cls-4"/><path d="m104.11 121.6 1.7 4.26-1.7 2.47-1.7-2.47 1.7-4.26zM108.44 124.73l-1.89-.39-1.11-2.74 2.69 1.22.31 1.91zM99.77 124.73l1.9-.39 1.11-2.74-2.7 1.22-.31 1.91zM104.14 106.87l3.44 3.58-3.44 9.44-3.43-9.44 3.43-3.58z" class="cls-7"/><path d="M97.6 113.01c3.69.16 5.2 5.83 5.3 6.33h2.4c.1-.5 1.61-6.17 5.3-6.33 3.64.37 2.53 4.73.77 5.81 0 0-.34-1.94-1.91-1.79-1.56.14-2.51 1.05-3.05 2.9-.09.38-.11.67-.11.99h-4.4c0-.32-.01-.61-.11-.99-.54-1.85-1.49-2.76-3.05-2.9-1.57-.14-1.91 1.79-1.91 1.79-1.77-1.08-2.88-5.44.77-5.81Z" class="cls-7"/><path d="m104.11 120.36 1.7 4.25-1.7 2.47-1.7-2.47 1.7-4.25zM108.44 123.49l-1.89-.39-1.11-2.74 2.69 1.22.31 1.91zM99.77 123.49l1.9-.39 1.11-2.74-2.7 1.22-.31 1.91zM104.14 105.16l3.44 3.57-3.44 9.45-3.43-9.45 3.43-3.57z" class="cls-3"/><path d="M97.6 111.86c3.69.16 5.2 6.38 5.3 6.88h2.38c.1-.5 1.61-6.72 5.3-6.88 3.64.37 2.53 4.73.77 5.81 0 0-.34-1.94-1.91-1.79-1.56.14-2.51 1.05-3.05 2.9-.09.38-.11.67-.11.99h-4.4c0-.32-.01-.61-.11-.99-.54-1.85-1.49-2.76-3.05-2.9-1.57-.14-1.91 1.79-1.91 1.79-1.77-1.08-2.88-5.44.77-5.81Z" class="cls-3"/><path d="m104.08 105.84 2.77 2.88-2.66 8.18-.11-11.06zM109.65 112.37s1.75-.36 2.39.58c.64.94.19 2.69.19 2.69s-.28-3.01-2.58-3.27ZM104.1 121.33v4.81l1.17-1.75-1.17-3.06zM96.74 112.35s1.28-.38 2.55.55c1.27.93 2.72 3.98 2.72 3.98s-2.43-4.16-5.28-4.53Z" class="cls-4"/><path d="m77.45 136.67 1.7 4.26-1.7 2.47-1.71-2.47 1.71-4.26zM81.78 139.81l-1.89-.39-1.11-2.75 2.69 1.23.31 1.91zM73.11 139.81l1.9-.39 1.1-2.75-2.69 1.23-.31 1.91zM77.48 121.47l3.43 3.58-3.43 9.45-3.44-9.45 3.44-3.58z" class="cls-3"/><path d="M70.94 128.18c3.69.16 5.2 6.38 5.3 6.88h2.38c.1-.5 1.61-6.72 5.3-6.88 3.64.37 2.53 4.73.77 5.81 0 0-.34-1.94-1.91-1.79-1.56.14-2.51 1.05-3.05 2.9-.09.38-.11.67-.11.99h-4.4c0-.32-.01-.61-.11-.99-.54-1.85-1.49-2.76-3.05-2.9-1.57-.14-1.91 1.79-1.91 1.79-1.77-1.08-2.88-5.44.77-5.81Z" class="cls-3"/><path d="m77.43 122.39 2.77 2.88-2.65 8.18-.12-11.06zM83 128.92s1.75-.36 2.39.58c.64.94.19 2.69.19 2.69s-.28-3.01-2.58-3.27ZM77.45 137.88v4.81l1.17-1.75-1.17-3.06zM70.09 128.9s1.28-.38 2.55.55 2.72 3.98 2.72 3.98-2.43-4.16-5.28-4.53Z" class="cls-4"/><path d="M52.05 34.08v31.81c0 8.58 11.4 21.2 25.25 27.17 13.85-5.97 25.25-18.59 25.25-27.17V34.08H52.04Z" class="cls-2"/><path d="M101.65 34.99v30.9c0 8.29-11.34 20.45-24.35 26.19-13.01-5.74-24.35-17.9-24.35-26.19v-30.9h48.7m.9-.9H52.04V65.9c0 8.58 11.4 21.2 25.25 27.17 13.85-5.97 25.25-18.59 25.25-27.17V34.09Z" class="cls-5"/><path d="M78.56 39.29 79.63 42l2.78-.85-1.45 2.52 2.4 1.64-2.88.44.22 2.91-2.14-1.98-2.14 1.98.21-2.91-2.87-.44 2.4-1.64-1.45-2.52 2.78.85 1.07-2.71zM62.41 57.61l.92 2.32 2.38-.73-1.24 2.16 2.06 1.41-2.47.38.18 2.49-1.83-1.69-1.83 1.69.18-2.49-2.47-.38 2.06-1.41-1.24-2.16 2.38.73.92-2.32zM78.86 77.61l1.02 1.98 2.11-.68-.67 2.11 1.97 1.02-1.97 1.02.67 2.12-2.11-.68-1.02 1.97-1.02-1.97-2.12.68.68-2.12-1.97-1.02 1.97-1.02-.68-2.11 2.12.68 1.02-1.98zM93.66 53.4l1 2.26 2.46-.26-1.46 1.99 1.46 1.99-2.46-.27-1 2.27-.99-2.27-2.46.27 1.46-1.99-1.46-1.99 2.46.26.99-2.26zM85.28 63.11l.68 1.96 2.08.04-1.66 1.26.6 1.98-1.7-1.18-1.7 1.18.6-1.98-1.65-1.26 2.07-.04.68-1.96z" class="cls-5"/><path d="m78.56 37.98 1.07 2.71 2.78-.85-1.45 2.52 2.4 1.65-2.88.44.22 2.9-2.14-1.98-2.14 1.98.21-2.9-2.87-.44 2.4-1.65-1.45-2.52 2.78.85 1.07-2.71zM62.41 56.3l.92 2.32 2.38-.73-1.24 2.16 2.06 1.42-2.47.37.18 2.49-1.83-1.69-1.83 1.69.18-2.49-2.47-.37 2.06-1.42-1.24-2.16 2.38.73.92-2.32zM78.86 76.3l1.02 1.98 2.11-.68-.67 2.12 1.97 1.01-1.97 1.02.67 2.12-2.11-.68-1.02 1.98-1.02-1.98-2.12.68.68-2.12-1.97-1.02 1.97-1.01-.68-2.12 2.12.68 1.02-1.98zM93.66 52.09l1 2.26 2.46-.26-1.46 1.99 1.46 1.99-2.46-.26-1 2.26-.99-2.26-2.46.26 1.46-1.99-1.46-1.99 2.46.26.99-2.26zM85.28 61.8l.68 1.96 2.08.04-1.66 1.26.6 1.98-1.7-1.18-1.7 1.18.6-1.98-1.65-1.26 2.07-.04.68-1.96z" class="cls-3"/></g></svg>